<?xml version="1.0" encoding="UTF-8" standalone="no"?>
<!-- Created by Syntax-Trax http://kevinpt.github.io/syntax-trax -->
<svg xmlns="http://www.w3.org/2000/svg"
xmlns:xlink="http://www.w3.org/1999/xlink"
xml:space="preserve"
width="211" height="117" version="1.1">
<style type="text/css">
<![CDATA[
.box_font {fill:#000000; text-anchor:middle;
    font-family:Times; font-size:14pt; font-weight:regular; font-style:normal;}
.literal_font {fill:#000000; text-anchor:middle;
    font-family:Times; font-size:14pt; font-weight:regular; font-style:normal;}
.title_font {fill:#000000; text-anchor:middle;
    font-family:Sans; font-size:22pt; font-weight:bold; font-style:normal;}
.bubble_font {fill:#000000; text-anchor:middle;
    font-family:Sans; font-size:14pt; font-weight:regular; font-style:normal;}
.token_font {fill:#000000; text-anchor:middle;
    font-family:Sans; font-size:16pt; font-weight:regular; font-style:normal;}
.label {fill:#000;
  text-anchor:middle;
  font-size:16pt; font-weight:bold; font-family:Sans;}
.link {fill: #0D47A1;}
.link:hover {fill: #0D47A1; text-decoration:underline;}
.link:visited {fill: #4A148C;}
]]>
</style>
<defs>
  <marker id="arrow" markerWidth="5" markerHeight="4" refX="2.5" refY="2" orient="auto" markerUnits="strokeWidth">
    <path d="M0,0 L0.5,2 L0,4 L4.5,2 z" fill="#000000" />
  </marker>
</defs>
<rect width="100%" height="100%" fill="white"/><rect x="86.5" y="51.0" width="53.0" height="26.0" stroke="none" fill-opacity="0.498039215686" fill="#000000"/>
<path d="M64.0,114.0 A13.0,13.0 0 0,1 64.0,88.0 H162.0 A13.0,13.0 0 0,1 162.0,114.0 z" stroke="none" fill-opacity="0.498039215686" fill="#000000"/>
<circle cx="10" cy="60.0" r="3" stroke="#000000" stroke-width="2" fill="#FFFFFF"/>
<rect x="83.5" y="48.0" width="53.0" height="26.0" stroke="#000000" stroke-width="2" fill="#FFFFFF"/>
<a xlink:href=".#select_qry" target="_parent">
  <text class="box_font link" x="110.0" y="66.5">select</text></a>
<path d="M61.0,111.0 A13.0,13.0 0 0,1 61.0,85.0 H159.0 A13.0,13.0 0 0,1 159.0,111.0 z" stroke="#000000" stroke-width="2" fill="#FFFFFF"/>
<text class="bubble_font" x="110.0" y="104.0">UNION ALL</text>
<line x1="47" y1="60.0" x2="78.5" y2="60.0" stroke="#000000" stroke-width="2" marker-end="url(#arrow)" />
<line x1="137.5" y1="60.0" x2="173.0" y2="60.0" stroke="#000000" stroke-width="2" />
<line x1="30" y1="60.0" x2="47" y2="60.0" stroke="#000000" stroke-width="2" />
<path d="M47.0,60.0 A9,9 0 0,0 38.0,69.0" stroke="#000000" stroke-width="2" fill="none"/>
<line x1="38" y1="88.0" x2="38.0" y2="82.5" stroke="#000000" stroke-width="2" marker-end="url(#arrow)" />
<line x1="38" y1="78.5" x2="38" y2="69.0" stroke="#000000" stroke-width="2" />
<path d="M38.0,88.0 A9,9 0 0,0 47.0,97.0" stroke="#000000" stroke-width="2" fill="none"/>
<path d="M182.0,69.0 A9.0,9.0 0 0,0 173.0,60.0" stroke="#000000" stroke-width="2" fill="none"/>
<line x1="182.0" y1="69.0" x2="182.0" y2="74.5" stroke="#000000" stroke-width="2" marker-end="url(#arrow)" />
<line x1="182.0" y1="78.5" x2="182.0" y2="88.0" stroke="#000000" stroke-width="2" />
<path d="M173.0,97.0 A9.0,9.0 0 0,0 182.0,88.0" stroke="#000000" stroke-width="2" fill="none"/>
<line x1="173.0" y1="60.0" x2="182.0" y2="60.0" stroke="#000000" stroke-width="2" />
<line x1="12" y1="60.0" x2="26.0" y2="60.0" stroke="#000000" stroke-width="2" marker-end="url(#arrow)" />
<circle cx="202.0" cy="60.0" r="3.0" stroke="#000000" stroke-width="2" fill="#FFFFFF"/>
<line x1="181.0" y1="60.0" x2="195.0" y2="60.0" stroke="#000000" stroke-width="2" marker-end="url(#arrow)" />
<text class="title_font" x="53.5" y="30.0">query</text>
</svg>